<svg xmlns="http://www.w3.org/2000/svg" xmlns:xlink="http://www.w3.org/1999/xlink" width="500" zoomAndPan="magnify" viewBox="0 0 375 374.999991" height="500" preserveAspectRatio="xMidYMid meet" version="1.0"><defs><g/></defs><g fill="#ffbd59" fill-opacity="1"><g transform="translate(79.174862, 216.26916)"><g><path d="M 6.5 -34.1875 L 22.671875 -34.1875 C 24.742188 -34.1875 25.976562 -32.882812 26.375 -30.28125 C 26.375 -28.738281 24.890625 -23.847656 21.921875 -15.609375 L 49.796875 -34.1875 L 66.703125 -34.1875 L 66.703125 -34 C 32.453125 -12.007812 14.550781 -0.675781 13 0 L 0.375 0 L 0 -0.1875 C 3.59375 -10.34375 6.75 -19.816406 9.46875 -28.609375 L 9.46875 -29.734375 C 9.46875 -30.992188 8.476562 -32.414062 6.5 -34 Z M 6.5 -34.1875 "/></g></g><g transform="translate(137.652521, 216.26916)"><g><path d="M 6.3125 -34.1875 L 22.484375 -34.1875 C 24.554688 -34.1875 25.796875 -32.882812 26.203125 -30.28125 C 26.203125 -28.851562 23.847656 -21.359375 19.140625 -7.796875 C 17.460938 -2.878906 16.46875 -0.28125 16.15625 0 L 0.1875 0 L -0.1875 -0.1875 C 3.40625 -10.34375 6.566406 -19.816406 9.296875 -28.609375 L 9.296875 -29.734375 C 9.296875 -30.992188 8.300781 -32.414062 6.3125 -34 Z M 6.3125 -34.1875 "/></g></g><g transform="translate(158.32175, 216.26916)"><g><path d="M 6.5 -34.1875 L 22.671875 -34.1875 C 24.742188 -34.1875 25.976562 -32.882812 26.375 -30.28125 C 26.375 -28.738281 24.890625 -23.847656 21.921875 -15.609375 L 49.796875 -34.1875 L 66.890625 -34.1875 L 66.890625 -34 C 64.992188 -32.601562 56.320312 -27.09375 40.875 -17.46875 C 47.46875 -13.9375 56.078125 -7.125 66.703125 2.96875 C 70.046875 6.71875 72.273438 9.441406 73.390625 11.140625 L 73.203125 11.140625 C 49.265625 -2.941406 31.984375 -11.425781 21.359375 -14.3125 C 18.359375 -4.769531 16.6875 0 16.34375 0 L 0.375 0 L 0 -0.1875 C 3.59375 -10.34375 6.75 -19.816406 9.46875 -28.609375 L 9.46875 -29.734375 C 9.46875 -30.992188 8.476562 -32.414062 6.5 -34 Z M 6.5 -34.1875 "/></g></g><g transform="translate(216.79941, 216.26916)"><g><path d="M 6.3125 -34.1875 L 22.484375 -34.1875 C 24.554688 -34.1875 25.796875 -32.882812 26.203125 -30.28125 C 26.203125 -28.851562 23.847656 -21.359375 19.140625 -7.796875 C 17.460938 -2.878906 16.46875 -0.28125 16.15625 0 L 0.1875 0 L -0.1875 -0.1875 C 3.40625 -10.34375 6.566406 -19.816406 9.296875 -28.609375 L 9.296875 -29.734375 C 9.296875 -30.992188 8.300781 -32.414062 6.3125 -34 Z M 6.3125 -34.1875 "/></g></g><g transform="translate(237.468638, 216.26916)"><g><path d="M 6.5 -34.1875 L 58.703125 -34.1875 C 63.941406 -34.1875 67.347656 -32.203125 68.921875 -28.234375 C 69.046875 -27.398438 69.109375 -26.722656 69.109375 -26.203125 C 69.109375 -23.785156 66.382812 -15.050781 60.9375 0 L 44.40625 0 L 44.03125 -0.1875 C 46.757812 -7.375 49.609375 -15.796875 52.578125 -25.453125 L 52.578125 -25.640625 C 52.296875 -26.503906 51.738281 -26.9375 50.90625 -26.9375 L 27.125 -26.9375 C 25.789062 -26.9375 24.800781 -25.265625 24.15625 -21.921875 L 16.71875 0 L 0 0 C 6.195312 -18.550781 9.296875 -28.023438 9.296875 -28.421875 L 9.296875 -30.28125 C 9.296875 -31.488281 8.363281 -32.664062 6.5 -33.8125 Z M 6.5 -34.1875 "/></g></g></g></svg>